<mxfile host="app.diagrams.net" modified="2022-04-26T02:50:51.320Z" agent="5.0 (Macintosh; Intel Mac OS X 10_15_7) AppleWebKit/605.1.15 (KHTML, like Gecko) Version/15.4 Safari/605.1.15" etag="tKqM4rW2BFxYi7j20Sie" version="17.4.6" type="github">
  <diagram id="bwZXPemW-8R_fUib3kJM" name="Page-1">
    <mxGraphModel dx="1034" dy="700" grid="1" gridSize="10" guides="1" tooltips="1" connect="1" arrows="1" fold="1" page="1" pageScale="1" pageWidth="850" pageHeight="1100" math="0" shadow="0">
      <root>
        <mxCell id="0" />
        <mxCell id="1" parent="0" />
        <mxCell id="iv3q5VfyeCg5NxRUFChR-26" style="edgeStyle=orthogonalEdgeStyle;rounded=0;orthogonalLoop=1;jettySize=auto;html=1;exitX=0.5;exitY=1;exitDx=0;exitDy=0;entryX=0.5;entryY=0;entryDx=0;entryDy=0;" edge="1" parent="1" source="iv3q5VfyeCg5NxRUFChR-1" target="iv3q5VfyeCg5NxRUFChR-2">
          <mxGeometry relative="1" as="geometry" />
        </mxCell>
        <mxCell id="iv3q5VfyeCg5NxRUFChR-30" style="edgeStyle=orthogonalEdgeStyle;rounded=0;orthogonalLoop=1;jettySize=auto;html=1;exitX=0.5;exitY=0;exitDx=0;exitDy=0;entryX=0.5;entryY=1;entryDx=0;entryDy=0;" edge="1" parent="1" source="iv3q5VfyeCg5NxRUFChR-1" target="iv3q5VfyeCg5NxRUFChR-3">
          <mxGeometry relative="1" as="geometry" />
        </mxCell>
        <mxCell id="iv3q5VfyeCg5NxRUFChR-1" value="Store" style="rounded=0;whiteSpace=wrap;html=1;fillColor=#d5e8d4;strokeColor=#82b366;" vertex="1" parent="1">
          <mxGeometry x="160" y="300" width="480" height="60" as="geometry" />
        </mxCell>
        <mxCell id="iv3q5VfyeCg5NxRUFChR-27" style="edgeStyle=orthogonalEdgeStyle;rounded=0;orthogonalLoop=1;jettySize=auto;html=1;exitX=0.5;exitY=1;exitDx=0;exitDy=0;entryX=0.5;entryY=0;entryDx=0;entryDy=0;" edge="1" parent="1" source="iv3q5VfyeCg5NxRUFChR-2" target="iv3q5VfyeCg5NxRUFChR-4">
          <mxGeometry relative="1" as="geometry" />
        </mxCell>
        <mxCell id="iv3q5VfyeCg5NxRUFChR-2" value="Command" style="rounded=0;whiteSpace=wrap;html=1;fillColor=#d5e8d4;strokeColor=#82b366;" vertex="1" parent="1">
          <mxGeometry x="160" y="400" width="480" height="60" as="geometry" />
        </mxCell>
        <mxCell id="iv3q5VfyeCg5NxRUFChR-3" value="SwiftUI" style="rounded=0;whiteSpace=wrap;html=1;fillColor=#e1d5e7;strokeColor=#9673a6;" vertex="1" parent="1">
          <mxGeometry x="160" y="200" width="480" height="60" as="geometry" />
        </mxCell>
        <mxCell id="iv3q5VfyeCg5NxRUFChR-28" style="edgeStyle=orthogonalEdgeStyle;rounded=0;orthogonalLoop=1;jettySize=auto;html=1;exitX=0.25;exitY=1;exitDx=0;exitDy=0;entryX=0.25;entryY=0;entryDx=0;entryDy=0;" edge="1" parent="1" source="iv3q5VfyeCg5NxRUFChR-4" target="iv3q5VfyeCg5NxRUFChR-5">
          <mxGeometry relative="1" as="geometry" />
        </mxCell>
        <mxCell id="iv3q5VfyeCg5NxRUFChR-29" style="edgeStyle=orthogonalEdgeStyle;rounded=0;orthogonalLoop=1;jettySize=auto;html=1;exitX=0.75;exitY=1;exitDx=0;exitDy=0;entryX=0.75;entryY=0;entryDx=0;entryDy=0;" edge="1" parent="1" source="iv3q5VfyeCg5NxRUFChR-4" target="iv3q5VfyeCg5NxRUFChR-5">
          <mxGeometry relative="1" as="geometry" />
        </mxCell>
        <mxCell id="iv3q5VfyeCg5NxRUFChR-4" value="Fetcher" style="rounded=0;whiteSpace=wrap;html=1;fillColor=#d5e8d4;strokeColor=#82b366;" vertex="1" parent="1">
          <mxGeometry x="160" y="500" width="480" height="60" as="geometry" />
        </mxCell>
        <mxCell id="iv3q5VfyeCg5NxRUFChR-5" value="" style="rounded=0;whiteSpace=wrap;html=1;fillColor=#d5e8d4;strokeColor=#82b366;" vertex="1" parent="1">
          <mxGeometry x="160" y="600" width="480" height="60" as="geometry" />
        </mxCell>
        <mxCell id="iv3q5VfyeCg5NxRUFChR-7" value="CoreData" style="rounded=0;whiteSpace=wrap;html=1;" vertex="1" parent="1">
          <mxGeometry x="380" y="610" width="250" height="40" as="geometry" />
        </mxCell>
        <mxCell id="iv3q5VfyeCg5NxRUFChR-8" value="Swifter" style="rounded=0;whiteSpace=wrap;html=1;" vertex="1" parent="1">
          <mxGeometry x="180" y="610" width="180" height="40" as="geometry" />
        </mxCell>
        <mxCell id="iv3q5VfyeCg5NxRUFChR-9" value="AppState" style="rounded=0;whiteSpace=wrap;html=1;fillColor=#dae8fc;strokeColor=#6c8ebf;" vertex="1" parent="1">
          <mxGeometry x="650" y="300" width="140" height="60" as="geometry" />
        </mxCell>
        <mxCell id="iv3q5VfyeCg5NxRUFChR-11" value="" style="endArrow=none;dashed=1;html=1;dashPattern=1 3;strokeWidth=2;rounded=0;" edge="1" parent="1">
          <mxGeometry width="50" height="50" relative="1" as="geometry">
            <mxPoint x="40" y="380" as="sourcePoint" />
            <mxPoint x="800" y="380" as="targetPoint" />
          </mxGeometry>
        </mxCell>
        <mxCell id="iv3q5VfyeCg5NxRUFChR-12" value="" style="endArrow=none;dashed=1;html=1;dashPattern=1 3;strokeWidth=2;rounded=0;" edge="1" parent="1">
          <mxGeometry width="50" height="50" relative="1" as="geometry">
            <mxPoint x="40" y="280" as="sourcePoint" />
            <mxPoint x="800" y="280" as="targetPoint" />
          </mxGeometry>
        </mxCell>
        <mxCell id="iv3q5VfyeCg5NxRUFChR-13" value="" style="endArrow=none;dashed=1;html=1;dashPattern=1 3;strokeWidth=2;rounded=0;" edge="1" parent="1">
          <mxGeometry width="50" height="50" relative="1" as="geometry">
            <mxPoint x="40" y="480" as="sourcePoint" />
            <mxPoint x="800" y="480" as="targetPoint" />
          </mxGeometry>
        </mxCell>
        <mxCell id="iv3q5VfyeCg5NxRUFChR-14" value="" style="endArrow=none;dashed=1;html=1;dashPattern=1 3;strokeWidth=2;rounded=0;" edge="1" parent="1">
          <mxGeometry width="50" height="50" relative="1" as="geometry">
            <mxPoint x="40" y="580" as="sourcePoint" />
            <mxPoint x="800" y="580" as="targetPoint" />
          </mxGeometry>
        </mxCell>
        <mxCell id="iv3q5VfyeCg5NxRUFChR-15" value="Data Layer" style="text;html=1;strokeColor=none;fillColor=none;align=center;verticalAlign=middle;whiteSpace=wrap;rounded=0;" vertex="1" parent="1">
          <mxGeometry x="50" y="315" width="60" height="30" as="geometry" />
        </mxCell>
        <mxCell id="iv3q5VfyeCg5NxRUFChR-16" value="" style="endArrow=none;dashed=1;html=1;dashPattern=1 3;strokeWidth=2;rounded=0;" edge="1" parent="1">
          <mxGeometry width="50" height="50" relative="1" as="geometry">
            <mxPoint x="40" y="680" as="sourcePoint" />
            <mxPoint x="800" y="680" as="targetPoint" />
          </mxGeometry>
        </mxCell>
        <mxCell id="iv3q5VfyeCg5NxRUFChR-17" value="Persistance&lt;br&gt;Layer" style="text;html=1;strokeColor=none;fillColor=none;align=center;verticalAlign=middle;whiteSpace=wrap;rounded=0;" vertex="1" parent="1">
          <mxGeometry x="60" y="610" width="60" height="30" as="geometry" />
        </mxCell>
        <mxCell id="iv3q5VfyeCg5NxRUFChR-18" value="Business Logic Layer" style="text;html=1;strokeColor=none;fillColor=none;align=center;verticalAlign=middle;whiteSpace=wrap;rounded=0;" vertex="1" parent="1">
          <mxGeometry x="50" y="510" width="60" height="30" as="geometry" />
        </mxCell>
        <mxCell id="iv3q5VfyeCg5NxRUFChR-19" value="Status" style="rounded=0;whiteSpace=wrap;html=1;fillColor=#dae8fc;strokeColor=#6c8ebf;" vertex="1" parent="1">
          <mxGeometry x="650" y="500" width="60" height="60" as="geometry" />
        </mxCell>
        <mxCell id="iv3q5VfyeCg5NxRUFChR-20" value="User" style="rounded=0;whiteSpace=wrap;html=1;fillColor=#dae8fc;strokeColor=#6c8ebf;" vertex="1" parent="1">
          <mxGeometry x="720" y="500" width="60" height="60" as="geometry" />
        </mxCell>
        <mxCell id="iv3q5VfyeCg5NxRUFChR-21" value="JSON" style="rounded=0;whiteSpace=wrap;html=1;fillColor=#dae8fc;strokeColor=#6c8ebf;" vertex="1" parent="1">
          <mxGeometry x="650" y="600" width="60" height="60" as="geometry" />
        </mxCell>
        <mxCell id="iv3q5VfyeCg5NxRUFChR-22" value="DataCD" style="rounded=0;whiteSpace=wrap;html=1;fillColor=#dae8fc;strokeColor=#6c8ebf;" vertex="1" parent="1">
          <mxGeometry x="720" y="600" width="60" height="60" as="geometry" />
        </mxCell>
        <mxCell id="iv3q5VfyeCg5NxRUFChR-23" value="Request Layer" style="text;html=1;strokeColor=none;fillColor=none;align=center;verticalAlign=middle;whiteSpace=wrap;rounded=0;" vertex="1" parent="1">
          <mxGeometry x="50" y="410" width="60" height="30" as="geometry" />
        </mxCell>
        <mxCell id="iv3q5VfyeCg5NxRUFChR-24" value="UI Layer" style="text;html=1;strokeColor=none;fillColor=none;align=center;verticalAlign=middle;whiteSpace=wrap;rounded=0;" vertex="1" parent="1">
          <mxGeometry x="50" y="230" width="60" height="30" as="geometry" />
        </mxCell>
        <mxCell id="iv3q5VfyeCg5NxRUFChR-31" value="View" style="rounded=0;whiteSpace=wrap;html=1;fillColor=#dae8fc;strokeColor=#6c8ebf;" vertex="1" parent="1">
          <mxGeometry x="650" y="200" width="140" height="60" as="geometry" />
        </mxCell>
      </root>
    </mxGraphModel>
  </diagram>
</mxfile>
